<mxfile host="Electron" agent="Mozilla/5.0 (Macintosh; Intel Mac OS X 10_15_7) AppleWebKit/537.36 (KHTML, like Gecko) draw.io/26.0.15 Chrome/132.0.6834.196 Electron/34.2.0 Safari/537.36" version="26.0.15">
  <diagram name="Page-1" id="IvZRNPraYu_3MsEaxgWE">
    <mxGraphModel dx="797" dy="474" grid="0" gridSize="10" guides="1" tooltips="1" connect="1" arrows="1" fold="1" page="0" pageScale="1" pageWidth="1169" pageHeight="827" math="0" shadow="0">
      <root>
        <mxCell id="0" />
        <mxCell id="1" parent="0" />
        <mxCell id="JZeRifs84M3ndpgjree1-11" style="edgeStyle=orthogonalEdgeStyle;rounded=0;orthogonalLoop=1;jettySize=auto;html=1;exitX=1;exitY=0.5;exitDx=0;exitDy=0;entryX=0;entryY=0.5;entryDx=0;entryDy=0;" edge="1" parent="1" source="JZeRifs84M3ndpgjree1-14" target="JZeRifs84M3ndpgjree1-10">
          <mxGeometry relative="1" as="geometry" />
        </mxCell>
        <mxCell id="JZeRifs84M3ndpgjree1-48" style="edgeStyle=orthogonalEdgeStyle;rounded=0;orthogonalLoop=1;jettySize=auto;html=1;exitX=0;exitY=0.75;exitDx=0;exitDy=0;entryX=1;entryY=0.25;entryDx=0;entryDy=0;" edge="1" parent="1" source="JZeRifs84M3ndpgjree1-1" target="JZeRifs84M3ndpgjree1-46">
          <mxGeometry relative="1" as="geometry" />
        </mxCell>
        <mxCell id="JZeRifs84M3ndpgjree1-1" value="Battery" style="rounded=1;whiteSpace=wrap;html=1;fillColor=#e1d5e7;strokeColor=#9673a6;" vertex="1" parent="1">
          <mxGeometry x="370" y="350" width="100" height="60" as="geometry" />
        </mxCell>
        <mxCell id="JZeRifs84M3ndpgjree1-13" style="edgeStyle=orthogonalEdgeStyle;rounded=0;orthogonalLoop=1;jettySize=auto;html=1;exitX=1;exitY=0.5;exitDx=0;exitDy=0;entryX=0;entryY=0.5;entryDx=0;entryDy=0;" edge="1" parent="1" source="JZeRifs84M3ndpgjree1-16" target="JZeRifs84M3ndpgjree1-12">
          <mxGeometry relative="1" as="geometry" />
        </mxCell>
        <mxCell id="JZeRifs84M3ndpgjree1-34" style="edgeStyle=orthogonalEdgeStyle;rounded=0;orthogonalLoop=1;jettySize=auto;html=1;exitX=1;exitY=0.25;exitDx=0;exitDy=0;entryX=0;entryY=0.5;entryDx=0;entryDy=0;" edge="1" parent="1" source="JZeRifs84M3ndpgjree1-2" target="JZeRifs84M3ndpgjree1-32">
          <mxGeometry relative="1" as="geometry" />
        </mxCell>
        <mxCell id="JZeRifs84M3ndpgjree1-47" style="edgeStyle=orthogonalEdgeStyle;rounded=0;orthogonalLoop=1;jettySize=auto;html=1;exitX=0;exitY=0.25;exitDx=0;exitDy=0;entryX=1;entryY=0.75;entryDx=0;entryDy=0;" edge="1" parent="1" source="JZeRifs84M3ndpgjree1-2" target="JZeRifs84M3ndpgjree1-46">
          <mxGeometry relative="1" as="geometry" />
        </mxCell>
        <mxCell id="JZeRifs84M3ndpgjree1-2" value="Power Supply" style="rounded=1;whiteSpace=wrap;html=1;fillColor=#d5e8d4;strokeColor=#82b366;" vertex="1" parent="1">
          <mxGeometry x="370" y="430" width="100" height="60" as="geometry" />
        </mxCell>
        <mxCell id="JZeRifs84M3ndpgjree1-7" value="Rover" style="rounded=1;whiteSpace=wrap;html=1;fillColor=#f5f5f5;fontColor=#333333;strokeColor=#666666;" vertex="1" parent="1">
          <mxGeometry x="840" y="384" width="50" height="60" as="geometry" />
        </mxCell>
        <mxCell id="JZeRifs84M3ndpgjree1-27" style="edgeStyle=orthogonalEdgeStyle;rounded=0;orthogonalLoop=1;jettySize=auto;html=1;exitX=0.5;exitY=0;exitDx=0;exitDy=0;entryX=0.5;entryY=1;entryDx=0;entryDy=0;" edge="1" parent="1" source="JZeRifs84M3ndpgjree1-9" target="JZeRifs84M3ndpgjree1-12">
          <mxGeometry relative="1" as="geometry" />
        </mxCell>
        <mxCell id="JZeRifs84M3ndpgjree1-58" style="edgeStyle=orthogonalEdgeStyle;rounded=0;orthogonalLoop=1;jettySize=auto;html=1;exitX=1;exitY=0.75;exitDx=0;exitDy=0;" edge="1" parent="1" source="JZeRifs84M3ndpgjree1-9">
          <mxGeometry relative="1" as="geometry">
            <mxPoint x="810" y="565" as="targetPoint" />
          </mxGeometry>
        </mxCell>
        <mxCell id="JZeRifs84M3ndpgjree1-59" style="edgeStyle=orthogonalEdgeStyle;rounded=0;orthogonalLoop=1;jettySize=auto;html=1;exitX=1;exitY=0.25;exitDx=0;exitDy=0;" edge="1" parent="1" source="JZeRifs84M3ndpgjree1-9">
          <mxGeometry relative="1" as="geometry">
            <mxPoint x="810" y="534.8888888888889" as="targetPoint" />
          </mxGeometry>
        </mxCell>
        <mxCell id="JZeRifs84M3ndpgjree1-9" value="LTC7000&lt;div&gt;High side driver&lt;/div&gt;" style="rounded=1;whiteSpace=wrap;html=1;" vertex="1" parent="1">
          <mxGeometry x="710" y="520" width="70" height="60" as="geometry" />
        </mxCell>
        <mxCell id="JZeRifs84M3ndpgjree1-23" style="edgeStyle=orthogonalEdgeStyle;rounded=0;orthogonalLoop=1;jettySize=auto;html=1;exitX=1;exitY=0.5;exitDx=0;exitDy=0;entryX=0;entryY=0.5;entryDx=0;entryDy=0;" edge="1" parent="1" source="JZeRifs84M3ndpgjree1-10" target="JZeRifs84M3ndpgjree1-7">
          <mxGeometry relative="1" as="geometry" />
        </mxCell>
        <mxCell id="JZeRifs84M3ndpgjree1-25" style="edgeStyle=orthogonalEdgeStyle;rounded=0;orthogonalLoop=1;jettySize=auto;html=1;exitX=1;exitY=0.25;exitDx=0;exitDy=0;entryX=0;entryY=0.75;entryDx=0;entryDy=0;" edge="1" parent="1" source="JZeRifs84M3ndpgjree1-10" target="JZeRifs84M3ndpgjree1-19">
          <mxGeometry relative="1" as="geometry" />
        </mxCell>
        <mxCell id="JZeRifs84M3ndpgjree1-10" value="2 common source NMOS" style="rounded=1;whiteSpace=wrap;html=1;fillColor=#e1d5e7;strokeColor=#9673a6;" vertex="1" parent="1">
          <mxGeometry x="710" y="350" width="70" height="60" as="geometry" />
        </mxCell>
        <mxCell id="JZeRifs84M3ndpgjree1-22" style="edgeStyle=orthogonalEdgeStyle;rounded=0;orthogonalLoop=1;jettySize=auto;html=1;exitX=1;exitY=0.75;exitDx=0;exitDy=0;entryX=0;entryY=0.75;entryDx=0;entryDy=0;" edge="1" parent="1" source="JZeRifs84M3ndpgjree1-12" target="JZeRifs84M3ndpgjree1-21">
          <mxGeometry relative="1" as="geometry" />
        </mxCell>
        <mxCell id="JZeRifs84M3ndpgjree1-24" style="edgeStyle=orthogonalEdgeStyle;rounded=0;orthogonalLoop=1;jettySize=auto;html=1;exitX=1;exitY=0.5;exitDx=0;exitDy=0;entryX=0;entryY=0.5;entryDx=0;entryDy=0;" edge="1" parent="1" source="JZeRifs84M3ndpgjree1-12" target="JZeRifs84M3ndpgjree1-7">
          <mxGeometry relative="1" as="geometry" />
        </mxCell>
        <mxCell id="JZeRifs84M3ndpgjree1-12" value="2 common source NMOS" style="rounded=1;whiteSpace=wrap;html=1;fillColor=#d5e8d4;strokeColor=#82b366;" vertex="1" parent="1">
          <mxGeometry x="710" y="430" width="70" height="60" as="geometry" />
        </mxCell>
        <mxCell id="JZeRifs84M3ndpgjree1-15" value="" style="edgeStyle=orthogonalEdgeStyle;rounded=0;orthogonalLoop=1;jettySize=auto;html=1;exitX=1;exitY=0.5;exitDx=0;exitDy=0;entryX=0;entryY=0.5;entryDx=0;entryDy=0;" edge="1" parent="1" source="JZeRifs84M3ndpgjree1-1" target="JZeRifs84M3ndpgjree1-14">
          <mxGeometry relative="1" as="geometry">
            <mxPoint x="580" y="380" as="sourcePoint" />
            <mxPoint x="690" y="380" as="targetPoint" />
          </mxGeometry>
        </mxCell>
        <mxCell id="JZeRifs84M3ndpgjree1-31" style="edgeStyle=orthogonalEdgeStyle;rounded=0;orthogonalLoop=1;jettySize=auto;html=1;exitX=0.5;exitY=0;exitDx=0;exitDy=0;entryX=0;entryY=0.75;entryDx=0;entryDy=0;" edge="1" parent="1" source="JZeRifs84M3ndpgjree1-14" target="JZeRifs84M3ndpgjree1-28">
          <mxGeometry relative="1" as="geometry" />
        </mxCell>
        <mxCell id="JZeRifs84M3ndpgjree1-14" value="Shunt" style="rounded=1;whiteSpace=wrap;html=1;fillColor=#e1d5e7;strokeColor=#9673a6;" vertex="1" parent="1">
          <mxGeometry x="610" y="370" width="70" height="20" as="geometry" />
        </mxCell>
        <mxCell id="JZeRifs84M3ndpgjree1-18" value="" style="edgeStyle=orthogonalEdgeStyle;rounded=0;orthogonalLoop=1;jettySize=auto;html=1;exitX=1;exitY=0.5;exitDx=0;exitDy=0;entryX=0;entryY=0.5;entryDx=0;entryDy=0;" edge="1" parent="1" source="JZeRifs84M3ndpgjree1-2" target="JZeRifs84M3ndpgjree1-16">
          <mxGeometry relative="1" as="geometry">
            <mxPoint x="580" y="460" as="sourcePoint" />
            <mxPoint x="710" y="460" as="targetPoint" />
          </mxGeometry>
        </mxCell>
        <mxCell id="JZeRifs84M3ndpgjree1-30" style="edgeStyle=orthogonalEdgeStyle;rounded=0;orthogonalLoop=1;jettySize=auto;html=1;exitX=0.5;exitY=1;exitDx=0;exitDy=0;entryX=0;entryY=0.25;entryDx=0;entryDy=0;" edge="1" parent="1" source="JZeRifs84M3ndpgjree1-16" target="JZeRifs84M3ndpgjree1-9">
          <mxGeometry relative="1" as="geometry" />
        </mxCell>
        <mxCell id="JZeRifs84M3ndpgjree1-16" value="Shunt" style="rounded=1;whiteSpace=wrap;html=1;fillColor=#d5e8d4;strokeColor=#82b366;" vertex="1" parent="1">
          <mxGeometry x="610" y="450" width="70" height="20" as="geometry" />
        </mxCell>
        <mxCell id="JZeRifs84M3ndpgjree1-19" value="LED" style="rounded=1;whiteSpace=wrap;html=1;fillColor=#f8cecc;strokeColor=#b85450;" vertex="1" parent="1">
          <mxGeometry x="840" y="350" width="50" height="20" as="geometry" />
        </mxCell>
        <mxCell id="JZeRifs84M3ndpgjree1-21" value="LED" style="rounded=1;whiteSpace=wrap;html=1;fillColor=#f8cecc;strokeColor=#b85450;" vertex="1" parent="1">
          <mxGeometry x="840" y="460" width="50" height="20" as="geometry" />
        </mxCell>
        <mxCell id="JZeRifs84M3ndpgjree1-29" style="edgeStyle=orthogonalEdgeStyle;rounded=0;orthogonalLoop=1;jettySize=auto;html=1;exitX=0.5;exitY=1;exitDx=0;exitDy=0;entryX=0.5;entryY=0;entryDx=0;entryDy=0;" edge="1" parent="1" source="JZeRifs84M3ndpgjree1-28" target="JZeRifs84M3ndpgjree1-10">
          <mxGeometry relative="1" as="geometry" />
        </mxCell>
        <mxCell id="JZeRifs84M3ndpgjree1-61" style="edgeStyle=orthogonalEdgeStyle;rounded=0;orthogonalLoop=1;jettySize=auto;html=1;exitX=1;exitY=0.25;exitDx=0;exitDy=0;" edge="1" parent="1" source="JZeRifs84M3ndpgjree1-28">
          <mxGeometry relative="1" as="geometry">
            <mxPoint x="810" y="264.8888888888889" as="targetPoint" />
          </mxGeometry>
        </mxCell>
        <mxCell id="JZeRifs84M3ndpgjree1-62" style="edgeStyle=orthogonalEdgeStyle;rounded=0;orthogonalLoop=1;jettySize=auto;html=1;exitX=1;exitY=0.75;exitDx=0;exitDy=0;" edge="1" parent="1" source="JZeRifs84M3ndpgjree1-28">
          <mxGeometry relative="1" as="geometry">
            <mxPoint x="810" y="294.8888888888889" as="targetPoint" />
          </mxGeometry>
        </mxCell>
        <mxCell id="JZeRifs84M3ndpgjree1-28" value="LTC7000&lt;div&gt;High side driver&lt;/div&gt;" style="rounded=1;whiteSpace=wrap;html=1;" vertex="1" parent="1">
          <mxGeometry x="710" y="250" width="70" height="60" as="geometry" />
        </mxCell>
        <mxCell id="JZeRifs84M3ndpgjree1-35" style="edgeStyle=orthogonalEdgeStyle;rounded=0;orthogonalLoop=1;jettySize=auto;html=1;exitX=0.5;exitY=0;exitDx=0;exitDy=0;entryX=0;entryY=0.5;entryDx=0;entryDy=0;" edge="1" parent="1" source="JZeRifs84M3ndpgjree1-32" target="JZeRifs84M3ndpgjree1-28">
          <mxGeometry relative="1" as="geometry" />
        </mxCell>
        <mxCell id="JZeRifs84M3ndpgjree1-51" value="OUTB" style="edgeLabel;html=1;align=center;verticalAlign=middle;resizable=0;points=[];" vertex="1" connectable="0" parent="JZeRifs84M3ndpgjree1-35">
          <mxGeometry x="0.0929" y="-1" relative="1" as="geometry">
            <mxPoint x="-11" y="-1" as="offset" />
          </mxGeometry>
        </mxCell>
        <mxCell id="JZeRifs84M3ndpgjree1-36" value="OUTA" style="edgeStyle=orthogonalEdgeStyle;rounded=0;orthogonalLoop=1;jettySize=auto;html=1;exitX=0.5;exitY=1;exitDx=0;exitDy=0;entryX=0;entryY=0.5;entryDx=0;entryDy=0;" edge="1" parent="1" source="JZeRifs84M3ndpgjree1-32" target="JZeRifs84M3ndpgjree1-9">
          <mxGeometry relative="1" as="geometry" />
        </mxCell>
        <mxCell id="JZeRifs84M3ndpgjree1-32" value="TPS3701&lt;div&gt;supervisor&lt;/div&gt;" style="rounded=1;whiteSpace=wrap;html=1;" vertex="1" parent="1">
          <mxGeometry x="520" y="394" width="70" height="46" as="geometry" />
        </mxCell>
        <mxCell id="JZeRifs84M3ndpgjree1-45" value="Fault interrupt to MCU" style="text;html=1;align=center;verticalAlign=middle;resizable=0;points=[];autosize=1;strokeColor=none;fillColor=none;" vertex="1" parent="1">
          <mxGeometry x="810" y="550" width="140" height="30" as="geometry" />
        </mxCell>
        <mxCell id="JZeRifs84M3ndpgjree1-49" style="edgeStyle=orthogonalEdgeStyle;rounded=0;orthogonalLoop=1;jettySize=auto;html=1;exitX=0.5;exitY=0;exitDx=0;exitDy=0;entryX=0;entryY=0.25;entryDx=0;entryDy=0;" edge="1" parent="1" source="JZeRifs84M3ndpgjree1-46" target="JZeRifs84M3ndpgjree1-28">
          <mxGeometry relative="1" as="geometry" />
        </mxCell>
        <mxCell id="JZeRifs84M3ndpgjree1-50" style="edgeStyle=orthogonalEdgeStyle;rounded=0;orthogonalLoop=1;jettySize=auto;html=1;exitX=0.5;exitY=1;exitDx=0;exitDy=0;entryX=0;entryY=0.75;entryDx=0;entryDy=0;" edge="1" parent="1" source="JZeRifs84M3ndpgjree1-46" target="JZeRifs84M3ndpgjree1-9">
          <mxGeometry relative="1" as="geometry" />
        </mxCell>
        <mxCell id="JZeRifs84M3ndpgjree1-46" value="Common cathode power shottky" style="rounded=1;whiteSpace=wrap;html=1;" vertex="1" parent="1">
          <mxGeometry x="230" y="390" width="90" height="60" as="geometry" />
        </mxCell>
        <mxCell id="JZeRifs84M3ndpgjree1-54" value="Current reading to MCU" style="text;html=1;align=center;verticalAlign=middle;resizable=0;points=[];autosize=1;strokeColor=none;fillColor=none;" vertex="1" parent="1">
          <mxGeometry x="805" y="520" width="150" height="30" as="geometry" />
        </mxCell>
        <mxCell id="JZeRifs84M3ndpgjree1-63" value="Fault interrupt to MCU" style="text;html=1;align=center;verticalAlign=middle;resizable=0;points=[];autosize=1;strokeColor=none;fillColor=none;" vertex="1" parent="1">
          <mxGeometry x="805" y="280" width="140" height="30" as="geometry" />
        </mxCell>
        <mxCell id="JZeRifs84M3ndpgjree1-64" value="Current reading to MCU" style="text;html=1;align=center;verticalAlign=middle;resizable=0;points=[];autosize=1;strokeColor=none;fillColor=none;" vertex="1" parent="1">
          <mxGeometry x="800" y="250" width="150" height="30" as="geometry" />
        </mxCell>
      </root>
    </mxGraphModel>
  </diagram>
</mxfile>
